<?xml version="1.0" encoding="UTF-8" standalone="no"?>
<svg
   fill="none"
   stroke="#000"
   stroke-width="2"
   viewBox="0 0 347 347"
   version="1.1"
   id="svg1"
   sodipodi:docname="Koi-Koi.svg"
   inkscape:version="1.4 (e7c3feb, 2024-10-09)"
   xmlns:inkscape="http://www.inkscape.org/namespaces/inkscape"
   xmlns:sodipodi="http://sodipodi.sourceforge.net/DTD/sodipodi-0.dtd"
   xmlns:xlink="http://www.w3.org/1999/xlink"
   xmlns="http://www.w3.org/2000/svg"
   xmlns:svg="http://www.w3.org/2000/svg">
  <defs
     id="defs1">
    <rect
       x="236.27916"
       y="295.60202"
       width="55.579514"
       height="16.013672"
       id="rect13" />
    <rect
       x="228.13182"
       y="273.57196"
       width="71.454605"
       height="21.818634"
       id="rect12" />
    <rect
       x="234.55018"
       y="273.57196"
       width="65.036244"
       height="21.818634"
       id="rect11" />
    <linearGradient
       id="linearGradient6"
       inkscape:collect="always">
      <stop
         style="stop-color:#ffffff;stop-opacity:1;"
         offset="0"
         id="stop6" />
      <stop
         style="stop-color:#ffffff;stop-opacity:0;"
         offset="1"
         id="stop7" />
    </linearGradient>
    <linearGradient
       inkscape:collect="always"
       xlink:href="#linearGradient6"
       id="linearGradient7"
       x1="30.280937"
       y1="284.83029"
       x2="45.707783"
       y2="284.83029"
       gradientUnits="userSpaceOnUse"
       gradientTransform="translate(153.73118,-90.456886)" />
    <rect
       x="228.13182"
       y="273.57196"
       width="71.454605"
       height="21.818634"
       id="rect12-2" />
    <rect
       x="228.13182"
       y="273.57196"
       width="71.454605"
       height="21.818634"
       id="rect12-1" />
    <rect
       x="236.27916"
       y="295.60202"
       width="55.579514"
       height="16.013672"
       id="rect13-6" />
  </defs>
  <sodipodi:namedview
     id="namedview1"
     pagecolor="#ffffff"
     bordercolor="#000000"
     borderopacity="0.25"
     inkscape:showpageshadow="2"
     inkscape:pageopacity="0.0"
     inkscape:pagecheckerboard="0"
     inkscape:deskcolor="#d1d1d1"
     showguides="false"
     inkscape:zoom="2.3832853"
     inkscape:cx="173.70979"
     inkscape:cy="173.5"
     inkscape:window-width="1920"
     inkscape:window-height="1030"
     inkscape:window-x="0"
     inkscape:window-y="26"
     inkscape:window-maximized="1"
     inkscape:current-layer="svg1" />
  <rect
     width="337"
     height="337"
     x="5"
     y="5"
     id="rect1" />
  <rect
     style="fill:#000000"
     id="rect2"
     width="33.567108"
     height="92.309555"
     x="282.80289"
     y="122.93954" />
  <rect
     style="fill:#000000"
     id="rect3"
     width="19.301088"
     height="62.099155"
     x="307.13907"
     y="264.341" />
  <rect
     style="fill:#000000"
     id="rect3-0"
     width="19.301088"
     height="62.099155"
     x="21.169287"
     y="20.987907" />
  <rect
     style="fill:#000000;stroke-width:2.20726"
     id="rect4"
     width="34.199032"
     height="14.897943"
     x="24.370859"
     y="122.62357" />
  <rect
     style="fill:#000000;stroke-width:2.20726"
     id="rect4-0"
     width="34.199032"
     height="14.897943"
     x="24.370859"
     y="200.72189" />
  <rect
     style="fill:#000000;stroke-width:1.39943"
     id="rect5-7"
     width="14.027416"
     height="26.195492"
     x="48.121723"
     y="86.232964" />
  <rect
     style="fill:#000000;stroke-width:1.39943"
     id="rect5-7-1"
     width="14.027416"
     height="26.195492"
     x="34.456665"
     y="156.02396" />
  <rect
     style="fill:#000000;stroke-width:1.39943"
     id="rect5-7-4"
     width="14.027416"
     height="26.195492"
     x="82.269249"
     y="86.232964" />
  <rect
     style="fill:#000000;stroke-width:1.39943"
     id="rect5-7-3"
     width="14.027416"
     height="26.195492"
     x="150.5643"
     y="86.232964" />
  <rect
     style="fill:#000000;stroke-width:1.39943"
     id="rect5-7-9"
     width="14.027416"
     height="26.195492"
     x="116.41677"
     y="86.232964" />
  <rect
     style="fill:#000000;stroke-width:1.39943"
     id="rect5-7-7"
     width="14.027416"
     height="26.195492"
     x="287.15436"
     y="86.232964" />
  <rect
     style="fill:#000000;stroke-width:1.39943"
     id="rect5-7-8"
     width="14.027416"
     height="26.195492"
     x="184.71182"
     y="86.232964" />
  <rect
     style="fill:#000000;stroke-width:1.39943"
     id="rect5-7-5"
     width="14.027416"
     height="26.195492"
     x="218.85934"
     y="86.232964" />
  <rect
     style="fill:#000000;stroke-width:1.39943"
     id="rect5-7-98"
     width="14.027416"
     height="26.195492"
     x="253.00687"
     y="86.232964" />
  <rect
     style="fill:none;stroke-width:1.39943"
     id="rect5-7-6"
     width="14.027416"
     height="26.195492"
     x="48.121716"
     y="232.86353" />
  <rect
     style="fill:none;stroke-width:1.39943"
     id="rect5-7-4-7"
     width="14.027416"
     height="26.195492"
     x="82.269241"
     y="232.86353" />
  <rect
     style="fill:url(#linearGradient7);fill-opacity:1;stroke-width:1.39943"
     id="rect5-7-3-7"
     width="14.027416"
     height="26.195492"
     x="184.71182"
     y="181.27567" />
  <rect
     style="fill:none;stroke-width:1.39943"
     id="rect5-7-9-6"
     width="14.027416"
     height="26.195492"
     x="116.41676"
     y="232.86353" />
  <rect
     style="fill:none;stroke-width:1.39943"
     id="rect5-7-9-6-1"
     width="14.027416"
     height="26.195492"
     x="82.688843"
     y="134.37079" />
  <rect
     style="fill:none;stroke-width:1.39943"
     id="rect5-7-9-6-1-2"
     width="14.027416"
     height="26.195492"
     x="82.688843"
     y="181.27567" />
  <rect
     style="fill:none;stroke-width:1.39943"
     id="rect5-7-9-6-1-8"
     width="14.027416"
     height="26.195492"
     x="116.83636"
     y="134.37079" />
  <rect
     style="fill:none;stroke-width:1.39943"
     id="rect5-7-9-6-1-2-3"
     width="14.027416"
     height="26.195492"
     x="116.83636"
     y="181.27567" />
  <rect
     style="fill:none;stroke-width:1.39943"
     id="rect5-7-9-6-1-82"
     width="14.027416"
     height="26.195492"
     x="150.98392"
     y="134.37079" />
  <rect
     style="fill:none;stroke-width:1.39943"
     id="rect5-7-9-6-1-2-5"
     width="14.027416"
     height="26.195492"
     x="150.98392"
     y="181.27567" />
  <rect
     style="fill:none;stroke-width:1.39943"
     id="rect5-7-9-6-1-8-5"
     width="14.027416"
     height="26.195492"
     x="184.71182"
     y="134.37079" />
  <rect
     style="fill:none;stroke-width:1.39943"
     id="rect5-7-9-6-1-2-3-9"
     width="14.027416"
     height="26.195492"
     x="150.5643"
     y="232.86353" />
  <rect
     style="fill:none;stroke-width:1.39943"
     id="rect5-7-7-0"
     width="14.027416"
     height="26.195492"
     x="287.15436"
     y="232.86353" />
  <rect
     style="fill:none;stroke-width:1.39943"
     id="rect5-7-8-9"
     width="14.027416"
     height="26.195492"
     x="184.71182"
     y="232.86353" />
  <rect
     style="fill:none;stroke-width:1.39943"
     id="rect5-7-5-1"
     width="14.027416"
     height="26.195492"
     x="218.85934"
     y="232.86353" />
  <rect
     style="fill:none;stroke-width:1.39943"
     id="rect5-7-98-8"
     width="14.027416"
     height="26.195492"
     x="253.00685"
     y="232.86353" />
  <rect
     style="opacity:1;fill:none;fill-opacity:1;stroke:#000000;stroke-width:1.51114;stroke-opacity:1"
     id="rect10"
     width="55.57951"
     height="16.013664"
     x="240.09175"
     y="276.38919" />
  <path
     d="m 229.30859,275.44141 h 1.1836 v 3.69726 l 3.92578,-3.69726 h 1.52344 l -4.3418,4.07812 4.65234,4.66992 h -1.55859 l -4.20117,-4.21289 v 4.21289 h -1.1836 z m 10.76368,0.80273 q -1.28907,0 -2.05079,0.96094 -0.75586,0.96094 -0.75586,2.61914 0,1.65234 0.75586,2.61328 0.76172,0.96094 2.05079,0.96094 1.28906,0 2.03906,-0.96094 0.75586,-0.96094 0.75586,-2.61328 0,-1.6582 -0.75586,-2.61914 -0.75,-0.96094 -2.03906,-0.96094 z m 0,-0.96094 q 1.83984,0 2.9414,1.23633 1.10156,1.23047 1.10156,3.30469 0,2.06836 -1.10156,3.30469 -1.10156,1.23046 -2.9414,1.23046 -1.84571,0 -2.95313,-1.23046 -1.10156,-1.23047 -1.10156,-3.30469 0,-2.07422 1.10156,-3.30469 1.10742,-1.23633 2.95313,-1.23633 z m 5.89453,0.15821 h 1.18359 v 8.74804 h -1.18359 z m 2.94726,4.98046 h 3.15821 v 0.96094 h -3.15821 z m 4.92188,-4.98046 h 1.18359 v 3.69726 l 3.92578,-3.69726 h 1.52344 l -4.3418,4.07812 4.65235,4.66992 h -1.5586 l -4.20117,-4.21289 v 4.21289 h -1.18359 z m 10.76367,0.80273 q -1.28906,0 -2.05078,0.96094 -0.75586,0.96094 -0.75586,2.61914 0,1.65234 0.75586,2.61328 0.76172,0.96094 2.05078,0.96094 1.28906,0 2.03906,-0.96094 0.75586,-0.96094 0.75586,-2.61328 0,-1.6582 -0.75586,-2.61914 -0.75,-0.96094 -2.03906,-0.96094 z m 0,-0.96094 q 1.83984,0 2.94141,1.23633 1.10156,1.23047 1.10156,3.30469 0,2.06836 -1.10156,3.30469 -1.10157,1.23046 -2.94141,1.23046 -1.8457,0 -2.95313,-1.23046 -1.10156,-1.23047 -1.10156,-3.30469 0,-2.07422 1.10156,-3.30469 1.10743,-1.23633 2.95313,-1.23633 z m 5.89453,0.15821 h 1.18359 v 8.74804 h -1.18359 z"
     id="text12"
     style="white-space:pre;stroke-width:1.2"
     transform="translate(17.388342,4.5747337)"
     aria-label="KOI-KOI" />
  <rect
     style="fill:none;fill-opacity:1;stroke:#000000;stroke-width:1.51114;stroke-opacity:1"
     id="rect10-5"
     width="55.57951"
     height="16.013664"
     x="240.09175"
     y="296.14615" />
  <path
     d="m 242.70117,297.75781 v 1.1543 q -0.67383,-0.32227 -1.27148,-0.48047 -0.59766,-0.1582 -1.1543,-0.1582 -0.9668,0 -1.49414,0.375 -0.52148,0.375 -0.52148,1.0664 0,0.58008 0.3457,0.87891 0.35156,0.29297 1.32422,0.47461 l 0.71484,0.14648 q 1.32422,0.25196 1.95117,0.89063 0.63282,0.63281 0.63282,1.69922 0,1.27148 -0.85547,1.92773 -0.84961,0.65625 -2.4961,0.65625 -0.62109,0 -1.32422,-0.14062 -0.69726,-0.14063 -1.44726,-0.41602 v -1.21875 q 0.7207,0.4043 1.41211,0.60938 0.6914,0.20507 1.35937,0.20507 1.01367,0 1.56446,-0.39843 0.55078,-0.39844 0.55078,-1.13672 0,-0.64453 -0.39844,-1.00781 -0.39258,-0.36329 -1.29492,-0.54493 l -0.72071,-0.14062 q -1.32421,-0.26367 -1.91601,-0.82617 -0.5918,-0.5625 -0.5918,-1.56446 0,-1.16015 0.81446,-1.82812 0.82031,-0.66797 2.25585,-0.66797 0.61524,0 1.25391,0.11133 0.63867,0.11133 1.30664,0.33398 z m 1.16016,-0.28711 h 7.40039 v 0.9961 h -3.10547 v 7.75195 h -1.18945 v -7.75195 h -3.10547 z m 12.09375,0.80274 q -1.28906,0 -2.05078,0.96093 -0.75586,0.96094 -0.75586,2.61915 0,1.65234 0.75586,2.61328 0.76172,0.96093 2.05078,0.96093 1.28906,0 2.03906,-0.96093 0.75586,-0.96094 0.75586,-2.61328 0,-1.65821 -0.75586,-2.61915 -0.75,-0.96093 -2.03906,-0.96093 z m 0,-0.96094 q 1.83984,0 2.9414,1.23633 1.10157,1.23047 1.10157,3.30469 0,2.06835 -1.10157,3.30468 -1.10156,1.23047 -2.9414,1.23047 -1.84571,0 -2.95313,-1.23047 -1.10156,-1.23047 -1.10156,-3.30468 0,-2.07422 1.10156,-3.30469 1.10742,-1.23633 2.95313,-1.23633 z m 7.07812,1.13086 v 3.28711 h 1.48828 q 0.82618,0 1.27735,-0.42774 0.45117,-0.42773 0.45117,-1.21875 0,-0.78515 -0.45117,-1.21289 -0.45117,-0.42773 -1.27735,-0.42773 z m -1.18359,-0.97266 h 2.67187 q 1.47071,0 2.22071,0.66797 0.75586,0.66211 0.75586,1.94531 0,1.29493 -0.75586,1.95704 -0.75,0.6621 -2.22071,0.6621 h -1.48828 v 3.51563 h -1.18359 z m 7.86914,7.25977 h 1.18945 v 1.48828 h -1.18945 z m 0,-7.25977 h 1.18945 v 3.83789 l -0.11718,2.0918 h -0.94922 l -0.12305,-2.0918 z"
     id="text13"
     style="white-space:pre;stroke-width:1.2"
     transform="translate(13.892248,2.3023949)"
     aria-label="STOP!" />
  <rect
     style="fill:none;fill-opacity:1;stroke:#000000;stroke-width:1.51114;stroke-opacity:1"
     id="rect10-3"
     width="55.57951"
     height="16.013664"
     x="-109.63728"
     y="-68.722038"
     transform="rotate(-179.9407)" />
  <path
     d="m 229.30859,275.44141 h 1.1836 v 3.69726 l 3.92578,-3.69726 h 1.52344 l -4.3418,4.07812 4.65234,4.66992 h -1.55859 l -4.20117,-4.21289 v 4.21289 h -1.1836 z m 10.76368,0.80273 q -1.28907,0 -2.05079,0.96094 -0.75586,0.96094 -0.75586,2.61914 0,1.65234 0.75586,2.61328 0.76172,0.96094 2.05079,0.96094 1.28906,0 2.03906,-0.96094 0.75586,-0.96094 0.75586,-2.61328 0,-1.6582 -0.75586,-2.61914 -0.75,-0.96094 -2.03906,-0.96094 z m 0,-0.96094 q 1.83984,0 2.9414,1.23633 1.10156,1.23047 1.10156,3.30469 0,2.06836 -1.10156,3.30469 -1.10156,1.23046 -2.9414,1.23046 -1.84571,0 -2.95313,-1.23046 -1.10156,-1.23047 -1.10156,-3.30469 0,-2.07422 1.10156,-3.30469 1.10742,-1.23633 2.95313,-1.23633 z m 5.89453,0.15821 h 1.18359 v 8.74804 h -1.18359 z m 2.94726,4.98046 h 3.15821 v 0.96094 h -3.15821 z m 4.92188,-4.98046 h 1.18359 v 3.69726 l 3.92578,-3.69726 h 1.52344 l -4.3418,4.07812 4.65235,4.66992 h -1.5586 l -4.20117,-4.21289 v 4.21289 h -1.18359 z m 10.76367,0.80273 q -1.28906,0 -2.05078,0.96094 -0.75586,0.96094 -0.75586,2.61914 0,1.65234 0.75586,2.61328 0.76172,0.96094 2.05078,0.96094 1.28906,0 2.03906,-0.96094 0.75586,-0.96094 0.75586,-2.61328 0,-1.6582 -0.75586,-2.61914 -0.75,-0.96094 -2.03906,-0.96094 z m 0,-0.96094 q 1.83984,0 2.94141,1.23633 1.10156,1.23047 1.10156,3.30469 0,2.06836 -1.10156,3.30469 -1.10157,1.23046 -2.94141,1.23046 -1.8457,0 -2.95313,-1.23046 -1.10156,-1.23047 -1.10156,-3.30469 0,-2.07422 1.10156,-3.30469 1.10743,-1.23633 2.95313,-1.23633 z m 5.89453,0.15821 h 1.18359 v 8.74804 h -1.18359 z"
     id="text12-4"
     style="white-space:pre;stroke-width:1.2"
     transform="rotate(-179.9407,166.08224,170.35519)"
     aria-label="KOI-KOI" />
  <rect
     style="fill:none;fill-opacity:1;stroke:#000000;stroke-width:1.51114;stroke-opacity:1"
     id="rect10-5-2"
     width="55.57951"
     height="16.013664"
     x="-109.63728"
     y="-48.965084"
     transform="rotate(-179.9407)" />
  <path
     d="m 242.70117,297.75781 v 1.1543 q -0.67383,-0.32227 -1.27148,-0.48047 -0.59766,-0.1582 -1.1543,-0.1582 -0.9668,0 -1.49414,0.375 -0.52148,0.375 -0.52148,1.0664 0,0.58008 0.3457,0.87891 0.35156,0.29297 1.32422,0.47461 l 0.71484,0.14648 q 1.32422,0.25196 1.95117,0.89063 0.63282,0.63281 0.63282,1.69922 0,1.27148 -0.85547,1.92773 -0.84961,0.65625 -2.4961,0.65625 -0.62109,0 -1.32422,-0.14062 -0.69726,-0.14063 -1.44726,-0.41602 v -1.21875 q 0.7207,0.4043 1.41211,0.60938 0.6914,0.20507 1.35937,0.20507 1.01367,0 1.56446,-0.39843 0.55078,-0.39844 0.55078,-1.13672 0,-0.64453 -0.39844,-1.00781 -0.39258,-0.36329 -1.29492,-0.54493 l -0.72071,-0.14062 q -1.32421,-0.26367 -1.91601,-0.82617 -0.5918,-0.5625 -0.5918,-1.56446 0,-1.16015 0.81446,-1.82812 0.82031,-0.66797 2.25585,-0.66797 0.61524,0 1.25391,0.11133 0.63867,0.11133 1.30664,0.33398 z m 1.16016,-0.28711 h 7.40039 v 0.9961 h -3.10547 v 7.75195 h -1.18945 v -7.75195 h -3.10547 z m 12.09375,0.80274 q -1.28906,0 -2.05078,0.96093 -0.75586,0.96094 -0.75586,2.61915 0,1.65234 0.75586,2.61328 0.76172,0.96093 2.05078,0.96093 1.28906,0 2.03906,-0.96093 0.75586,-0.96094 0.75586,-2.61328 0,-1.65821 -0.75586,-2.61915 -0.75,-0.96093 -2.03906,-0.96093 z m 0,-0.96094 q 1.83984,0 2.9414,1.23633 1.10157,1.23047 1.10157,3.30469 0,2.06835 -1.10157,3.30468 -1.10156,1.23047 -2.9414,1.23047 -1.84571,0 -2.95313,-1.23047 -1.10156,-1.23047 -1.10156,-3.30468 0,-2.07422 1.10156,-3.30469 1.10742,-1.23633 2.95313,-1.23633 z m 7.07812,1.13086 v 3.28711 h 1.48828 q 0.82618,0 1.27735,-0.42774 0.45117,-0.42773 0.45117,-1.21875 0,-0.78515 -0.45117,-1.21289 -0.45117,-0.42773 -1.27735,-0.42773 z m -1.18359,-0.97266 h 2.67187 q 1.47071,0 2.22071,0.66797 0.75586,0.66211 0.75586,1.94531 0,1.29493 -0.75586,1.95704 -0.75,0.6621 -2.22071,0.6621 h -1.48828 v 3.51563 h -1.18359 z m 7.86914,7.25977 h 1.18945 v 1.48828 h -1.18945 z m 0,-7.25977 h 1.18945 v 3.83789 l -0.11718,2.0918 h -0.94922 l -0.12305,-2.0918 z"
     id="text13-8"
     style="white-space:pre;stroke-width:1.2"
     transform="rotate(-179.9407,167.82965,171.48849)"
     aria-label="STOP!" />
</svg>
